<svg width="693" height="471" viewBox="0 0 693 471" fill="none" xmlns="http://www.w3.org/2000/svg">
<path d="M129.889 29.0061L158.185 26.6962V128.621L129.889 132.374V29.0061Z" fill="#D9D9D9"/>
<path d="M270.216 29.006H298.512V131.219L270.216 134.684V29.006Z" fill="#D9D9D9"/>
<path d="M199.763 56.725L225.461 59.6124L228.06 136.417L199.763 132.952V56.725Z" fill="#D9D9D9"/>
<path d="M163.96 26.6962H186.482L188.503 99.4582L166.27 98.5919L163.96 26.6962Z" fill="#0063C8"/>
<path d="M233.257 22.0763L254.624 24.0975L255.779 96.5707H233.257V22.0763Z" fill="#0063C8"/>
<path d="M470.438 160.034L498.734 157.724V259.648L470.438 263.402V160.034Z" fill="#D9D9D9"/>
<path d="M610.764 160.034H639.06V262.247L610.764 265.712V160.034Z" fill="#D9D9D9"/>
<path d="M540.312 187.753L566.01 190.64L568.609 267.444L540.312 263.98V187.753Z" fill="#D9D9D9"/>
<path d="M504.509 157.724H527.03L529.051 230.486L506.818 229.62L504.509 157.724Z" fill="#0063C8"/>
<path d="M573.806 153.104L595.173 155.125L596.327 227.598H573.806V153.104Z" fill="#0063C8"/>
<path d="M239.285 286.735L267.581 284.425V386.35L239.285 390.103V286.735Z" fill="#D9D9D9"/>
<path d="M379.611 286.735H407.908V388.948L379.611 392.413V286.735Z" fill="#D9D9D9"/>
<path d="M309.159 314.454L334.857 317.341L337.456 394.146L309.159 390.681V314.454Z" fill="#D9D9D9"/>
<path d="M273.356 284.425H295.878L297.899 357.187L275.666 356.321L273.356 284.425Z" fill="#0063C8"/>
<path d="M342.653 279.806L364.02 281.827L365.175 354.3H342.653V279.806Z" fill="#0063C8"/>
<path d="M703.916 24.4027L701.99 56.7934L568.365 44.5137L573.248 14.4658L703.916 24.4027Z" fill="#D9D9D9"/>
<path d="M625.47 78.557L626.595 106.486L563.665 102.744L567.894 73.2759L625.47 78.557Z" fill="#D9D9D9"/>
<path d="M622.905 116.482L624.357 144.12L563.895 140.525L565.656 110.911L622.905 116.482Z" fill="#D9D9D9"/>
<path d="M736.911 -9.85555L738.583 14.0811L656.218 9.18343L654.726 -12.5755L736.911 -9.85555Z" fill="#0063C8"/>
<path d="M729.802 68.0439L728.518 89.6377L646.77 84.7768L645.406 60.8585L729.802 68.0439Z" fill="#0063C8"/>
<path d="M741.828 105.289L736.985 129.457L655.403 121.82L656.687 100.226L741.828 105.289Z" fill="#0063C8"/>
<path d="M728.051 139.142L723.844 163.038L641.625 155.673L644.217 132.918L728.051 139.142Z" fill="#0063C8"/>
<path d="M442.428 382.584L472.151 380.929L469.915 462.172L440.15 465.372L442.428 382.584Z" fill="#D9D9D9"/>
<path d="M500.985 321.748L533.42 322.641L525.406 456.589L495.218 452.667L500.985 321.748Z" fill="#D9D9D9"/>
<path d="M557.612 398.429L585.49 396.414L583.756 459.431L554.169 456.144L557.612 398.429Z" fill="#D9D9D9"/>
<path d="M595.6 399.783L623.178 397.451L621.511 457.997L591.856 457.181L595.6 399.783Z" fill="#D9D9D9"/>
<path d="M465.692 289.863L489.563 287.428L487.293 369.907L465.593 372.092L465.692 289.863Z" fill="#0063C8"/>
<path d="M437.244 278.878L461.999 278.013L457.8 363.222L436.176 362.627L437.244 278.878Z" fill="#0063C8"/>
<path d="M543.779 294.485L565.402 295.08L563.15 376.941L539.287 379.067L543.779 294.485Z" fill="#0063C8"/>
<path d="M580.621 281.278L604.932 285.347L599.899 367.132L578.275 366.537L580.621 281.278Z" fill="#0063C8"/>
<path d="M614.896 293.968L638.915 297.412L634.174 379.823L611.348 377.958L614.896 293.968Z" fill="#0063C8"/>
<path d="M96.2743 173.548L96.9812 203.309L15.8502 198.485L13.6009 168.632L96.2743 173.548Z" fill="#D9D9D9"/>
<path d="M155.701 243.194L153.775 275.585L20.1499 263.305L25.0323 233.257L155.701 243.194Z" fill="#D9D9D9"/>
<path d="M77.254 297.349L78.3794 325.277L15.4489 321.535L19.6777 292.068L77.254 297.349Z" fill="#D9D9D9"/>
<path d="M74.6892 335.274L76.1415 362.912L15.6789 359.317L17.4398 329.702L74.6892 335.274Z" fill="#D9D9D9"/>
<path d="M188.207 199.756L189.88 223.693L107.515 218.795L106.022 197.036L188.207 199.756Z" fill="#0063C8"/>
<path d="M200.735 160.875L200.81 185.646L115.779 178.732L117.063 157.138L200.735 160.875Z" fill="#0063C8"/>
<path d="M193.948 295.488L192.664 317.082L110.916 312.221L109.552 288.303L193.948 295.488Z" fill="#0063C8"/>
<path d="M205.973 332.733L201.131 356.902L119.548 349.264L120.832 327.67L205.973 332.733Z" fill="#0063C8"/>
<path d="M192.196 366.586L187.989 390.483L105.771 383.117L108.362 360.363L192.196 366.586Z" fill="#0063C8"/>
<path d="M416.048 18.986L446.333 16.5138V125.601L416.048 129.618V18.986Z" fill="#D9D9D9"/>
<path d="M490.833 48.6526L518.336 51.7429L521.118 133.944L490.833 130.236V48.6526Z" fill="#D9D9D9"/>
<path d="M404.305 48.6526L376.802 51.7429L374.33 130.236H404.305V48.6526Z" fill="#D9D9D9"/>
<path d="M333.538 59.7777L307.271 54.8333L304.18 135.18L335.701 132.399L333.538 59.7777Z" fill="#D9D9D9"/>
<path d="M452.514 16.5138H476.618L478.781 94.3888L454.986 93.4617L452.514 16.5138Z" fill="#0063C8"/>
<path d="M341.882 16.5138H365.986L368.149 94.3888L341.882 96.552V16.5138Z" fill="#0063C8"/>
<path d="M526.68 11.5693L549.548 13.7325L550.785 91.2985H526.68V11.5693Z" fill="#0063C8"/>
<path d="M686.448 226.653L660.181 221.708L657.09 302.055L688.611 299.274L686.448 226.653Z" fill="#D9D9D9"/>
<path d="M39.6528 73.3749L67.1563 76.4652L69.9376 158.667L39.6528 154.958V73.3749Z" fill="#D9D9D9"/>
<path d="M1.33337 41.2361H25.4375L27.6007 119.111L3.8056 118.184L1.33337 41.2361Z" fill="#0063C8"/>
<path d="M75.5 36.2916L98.3681 38.4548L99.6042 116.021H75.5V36.2916Z" fill="#0063C8"/>
<path d="M317.778 151.25L348.063 148.778V257.864L317.778 261.882V151.25Z" fill="#D9D9D9"/>
<path d="M392.562 180.917L420.066 184.007L422.847 266.208L392.562 262.5V180.917Z" fill="#D9D9D9"/>
<path d="M306.035 180.917L278.531 184.007L276.059 262.5H306.035V180.917Z" fill="#D9D9D9"/>
<path d="M235.267 192.041L209 187.097L205.91 267.444L237.431 264.663L235.267 192.041Z" fill="#D9D9D9"/>
<path d="M354.243 148.778H378.347L380.51 226.653L356.715 225.726L354.243 148.778Z" fill="#0063C8"/>
<path d="M243.611 154.34H267.715L269.878 232.215L243.611 234.378V154.34Z" fill="#0063C8"/>
<path d="M428.41 143.833L451.278 145.996L452.514 223.562H428.41V143.833Z" fill="#0063C8"/>
</svg>
