<svg width="104" height="52" viewBox="0 0 104 52" fill="none" xmlns="http://www.w3.org/2000/svg">
<path d="M47.06 3.11999L59.8 2.07999V47.97L47.06 49.66V3.11999Z" fill="#D9D9D9"/>
<path d="M78.52 15.6L90.09 16.9L91.26 51.48L78.52 49.92V15.6Z" fill="#D9D9D9"/>
<path d="M42.12 15.6L30.55 16.9L29.51 49.92H42.12V15.6Z" fill="#D9D9D9"/>
<path d="M12.35 20.28L1.30001 18.2L1.04904e-05 52L13.26 50.83L12.35 20.28Z" fill="#D9D9D9"/>
<path d="M62.4 2.07999H72.54L73.45 34.84L63.44 34.45L62.4 2.07999Z" fill="#0063C8"/>
<path d="M15.86 2.07999H26L26.91 34.84L15.86 35.75V2.07999Z" fill="#0063C8"/>
<path d="M93.6 0L103.22 0.91L103.74 33.54H93.6V0Z" fill="#0063C8"/>
</svg>
